<svg width="24" height="24" viewBox="0 0 24 24" fill="none" xmlns="http://www.w3.org/2000/svg">
<g id="Close" clip-path="url(#clip0_94_567)">
<rect width="24" height="24" fill="white"/>
<path id="Vector" d="M17.795 6.615C18.1844 6.22564 18.1844 5.59436 17.795 5.205C17.4056 4.81564 16.7744 4.81564 16.385 5.205L11.5 10.09L6.61501 5.205C6.22565 4.81564 5.59437 4.81564 5.20501 5.205C4.81565 5.59436 4.81565 6.22564 5.20501 6.615L10.09 11.5L5.20501 16.385C4.81565 16.7744 4.81565 17.4056 5.20501 17.795C5.59437 18.1844 6.22565 18.1844 6.61501 17.795L11.5 12.91L16.385 17.795C16.7744 18.1844 17.4057 18.1844 17.795 17.795C18.1844 17.4056 18.1844 16.7744 17.795 16.385L12.91 11.5L17.795 6.615Z" fill="#8B8B8B"/>
</g>
<defs>
<clipPath id="clip0_94_567">
<rect width="24" height="24" fill="white"/>
</clipPath>
</defs>
</svg>
