<svg width="24" height="24" viewBox="0 0 24 24" fill="none" xmlns="http://www.w3.org/2000/svg">
<path fill-rule="evenodd" clip-rule="evenodd" d="M1.79439 0H22.1308C23.1028 0 23.9252 0.747664 24 1.71963V22.2056C24 23.1776 23.1776 23.9252 22.2056 23.9252H1.79439C0.82243 23.9252 0 23.1776 0 22.2056V1.71963C0 0.747664 0.82243 0 1.79439 0ZM3.21495 5.30841C3.21495 6.50467 4.18692 7.40187 5.30841 7.40187C6.42991 7.40187 7.40187 6.50467 7.40187 5.30841C7.40187 4.18692 6.50467 3.28972 5.30841 3.28972C4.11215 3.28972 3.21495 4.18692 3.21495 5.30841ZM16.8972 20.4112H20.4112V14.1308C20.4112 11.0654 19.7383 8.6729 16.1495 8.6729C14.4299 8.6729 13.2336 9.64486 12.785 10.5421H12.7103V8.97196H9.42056V20.486H12.9346V14.8037C12.9346 13.3084 13.1589 11.8879 15.028 11.8879C16.8972 11.8879 16.8972 13.5327 16.8972 14.8785V20.4112ZM7.02804 20.4112H3.51402V8.97196H7.02804V20.4112Z" fill="#AAAAAA"/>
</svg>
