<svg width="165" height="52" viewBox="0 0 165 52" fill="none" xmlns="http://www.w3.org/2000/svg">
<g id="Layer_1" clip-path="url(#clip0_22_480)">
<g id="Group">
<path id="Vector" d="M77.1191 22.7782C77.1191 24.1617 76.8607 25.377 76.3438 26.4319C75.827 27.4867 75.105 28.3351 74.1854 28.9849L76.0626 32.2487H73.129L71.8521 30.0091C71.5101 30.0932 71.1681 30.162 70.8109 30.2002C70.4613 30.2461 70.0889 30.2614 69.7013 30.2614C68.5841 30.2614 67.5656 30.0855 66.6536 29.7263C65.7416 29.3747 64.9588 28.8702 64.3128 28.2128C63.6591 27.5555 63.1575 26.7758 62.8079 25.8586C62.4583 24.9413 62.2759 23.9171 62.2759 22.7782C62.2759 21.6393 62.4507 20.615 62.8079 19.6978C63.1575 18.7805 63.6591 18.0009 64.3128 17.3512C64.9664 16.7015 65.7416 16.2046 66.6536 15.8454C67.5656 15.4938 68.5841 15.3103 69.7013 15.3103C70.8185 15.3103 71.8369 15.4861 72.749 15.8454C73.661 16.197 74.4438 16.7015 75.0898 17.3512C75.7434 18.0009 76.245 18.7805 76.5947 19.6978C76.9443 20.615 77.1267 21.6393 77.1267 22.7782H77.1191ZM73.927 22.7782C73.927 21.9832 73.8206 21.2724 73.6078 20.6532C73.395 20.0265 73.1062 19.5067 72.7338 19.0863C72.3613 18.6659 71.9205 18.3448 71.4037 18.1232C70.8869 17.9015 70.3169 17.7945 69.7013 17.7945C69.0857 17.7945 68.5157 17.9015 67.9988 18.1232C67.482 18.3448 67.0412 18.6659 66.6688 19.0863C66.2964 19.5067 66.0076 20.0341 65.7948 20.6532C65.582 21.28 65.4756 21.9832 65.4756 22.7782C65.4756 23.5731 65.582 24.284 65.7948 24.9031C66.0076 25.5299 66.2964 26.0497 66.6688 26.4777C67.0412 26.9058 67.482 27.2268 67.9988 27.4485C68.5157 27.6701 69.0857 27.7772 69.7013 27.7772C70.0205 27.7772 70.2941 27.7542 70.5373 27.7007L68.4777 24.1082H71.4113L72.7414 26.4548C73.1214 26.0268 73.4102 25.507 73.6154 24.8955C73.8206 24.284 73.927 23.5731 73.927 22.7705V22.7782Z" fill="#221E1F"/>
<path id="Vector_2" d="M85.4717 30.2613C84.6052 30.2613 83.8072 30.162 83.0624 29.9556C82.3176 29.7568 81.6792 29.4435 81.1396 29.0307C80.6 28.6179 80.1743 28.0829 79.8627 27.4408C79.5511 26.7987 79.3991 26.042 79.3991 25.1783V15.5854H82.5912V24.9566C82.5912 25.8739 82.842 26.5771 83.3512 27.0586C83.8528 27.5402 84.5672 27.7848 85.4793 27.7848C86.3913 27.7848 87.0981 27.5402 87.6073 27.0586C88.1089 26.5771 88.3673 25.8739 88.3673 24.9566V15.5854H91.5594V25.1783C91.5594 26.0497 91.4074 26.7987 91.0958 27.4408C90.7842 28.0829 90.3586 28.6103 89.819 29.0307C89.2794 29.4511 88.6333 29.7568 87.8961 29.9556C87.1513 30.1543 86.3533 30.2613 85.4869 30.2613H85.4717Z" fill="#221E1F"/>
<path id="Vector_3" d="M102.177 26.9822H96.6667L95.6483 29.9938H92.4562L97.784 15.5931H101.067L106.395 29.9938H103.203L102.184 26.9822H102.177ZM99.19 19.5679L97.4952 24.5363H101.341L99.6612 19.5679L99.4256 18.7271L99.19 19.5679Z" fill="#221E1F"/>
<path id="Vector_4" d="M116.807 24.9795V15.5854H119.984V29.9862H117.522L111.449 21.494L111.031 20.5921V29.9862H107.854V15.5854H110.317L116.389 24.0776L116.807 24.9795Z" fill="#221E1F"/>
<path id="Vector_5" d="M121.626 15.5854H133.923V18.0773H129.378V29.9862H126.171V18.0773H121.626V15.5854Z" fill="#221E1F"/>
<path id="Vector_6" d="M141.637 30.2613C140.771 30.2613 139.973 30.162 139.228 29.9556C138.483 29.7568 137.845 29.4435 137.305 29.0307C136.765 28.6179 136.34 28.0829 136.028 27.4408C135.716 26.7987 135.564 26.042 135.564 25.1783V15.5854H138.757V24.9566C138.757 25.8739 139.007 26.5771 139.517 27.0586C140.018 27.5402 140.733 27.7848 141.645 27.7848C142.557 27.7848 143.263 27.5402 143.773 27.0586C144.274 26.5771 144.533 25.8739 144.533 24.9566V15.5854H147.725V25.1783C147.725 26.0497 147.573 26.7987 147.261 27.4408C146.95 28.0829 146.524 28.6103 145.984 29.0307C145.445 29.4511 144.799 29.7568 144.061 29.9556C143.317 30.1543 142.519 30.2613 141.652 30.2613H141.637Z" fill="#221E1F"/>
<path id="Vector_7" d="M153.729 21.4406L153.44 20.3246V29.9938H150.263V15.5931H153.896L157.347 23.8636L157.635 24.9108L157.924 23.8636L161.375 15.5931H165.008V29.9938H161.831V20.3246L161.542 21.4406L158.73 28.4498H156.541L153.729 21.4406Z" fill="#221E1F"/>
<path id="Vector_8" d="M62.7243 52V37.9662H66.988C69.3897 37.9662 71.1833 38.5777 72.3538 39.8007C73.5242 41.0237 74.1094 42.7511 74.1094 44.9754C74.1094 47.1998 73.5242 48.9272 72.3538 50.1579C71.1833 51.3885 69.3973 52 66.988 52H62.7243ZM63.6211 38.7917V51.1745H66.8588C67.8468 51.1745 68.7285 51.0598 69.5189 50.8229C70.3017 50.5936 70.9705 50.2267 71.5177 49.7222C72.0649 49.2177 72.483 48.5756 72.7794 47.796C73.0682 47.0163 73.2202 46.0685 73.2202 44.9678C73.2202 43.8671 73.0758 42.9269 72.7794 42.1396C72.4906 41.36 72.0649 40.7179 71.5177 40.2211C70.9705 39.7242 70.3017 39.365 69.5189 39.128C68.7361 38.8987 67.8468 38.7764 66.8588 38.7764H63.6211V38.7917Z" fill="#221E1F"/>
<path id="Vector_9" d="M80.6379 37.9662L86.3837 52H85.3805L83.7008 47.8189H76.9671L75.3102 52H74.307L80.0527 37.9662H80.6379ZM77.3015 46.9934H83.374L80.3491 39.3803L77.3015 46.9934Z" fill="#221E1F"/>
<path id="Vector_10" d="M85.6541 37.9662H97.1988V38.7917H91.871V52H90.9742V38.7917H85.6465V37.9662H85.6541Z" fill="#221E1F"/>
<path id="Vector_11" d="M102.815 37.9662L108.561 52H107.558L105.878 47.8189H99.1444L97.4876 52H96.4843L102.23 37.9662H102.815ZM99.4788 46.9934H105.551L102.526 39.3803L99.4788 46.9934Z" fill="#221E1F"/>
</g>
<path id="Vector_12" d="M0.912022 35.0157L3.10088 36.4757V52H0V0H0.912022V14.6988H2.00645V26.8293H0.912022V35.0234V35.0157ZM6.20935 23.8865H7.30378V11.756H6.20935V0H5.29733V52H8.2234V33.5634L6.21695 32.1035V23.8865H6.20935ZM11.3243 20.9437H12.6011V8.81317H11.3243V0H10.4123V52H13.5207V30.6512L11.3319 29.0078V20.9437H11.3243ZM16.6292 18.0085H17.906V5.878H16.6292V0H15.7172V52H18.8257V27.7389L16.6368 26.0955V18.0085H16.6292ZM21.9265 15.0657H23.021V2.94282H21.9265V0H21.0145V52H24.123V24.8267L21.9341 23.3667V15.0657H21.9265ZM25.3922 14.844L27.3987 16.304V24.4445H26.3042V36.575H27.3987V52.0076H28.3107V0H25.3846V14.844H25.3922ZM30.5147 17.7563L32.7036 19.2162V27.3797H31.6092V39.5102H32.7036V52.0076H33.6156V0H30.5071V17.7563H30.5147ZM35.8121 20.6685L38.0009 22.1285V30.1391H36.7241V42.2696H38.0009V52.0076H38.9129V0H35.8045V20.6685H35.8121ZM41.1094 23.5808L43.2982 25.0407V33.0742H42.0214V45.2048H43.2982V52H44.2103V0H41.1018V23.5808H41.1094ZM46.2243 0V26.493L48.4132 27.953V36.0171H47.3187V48.1476H48.4132V52.0076H49.3252V0H46.2167H46.2243Z" fill="#221E1F"/>
</g>
<defs>
<clipPath id="clip0_22_480">
<rect width="165" height="52" fill="white"/>
</clipPath>
</defs>
</svg>
