<svg width="65" height="77" viewBox="0 0 65 77" fill="none" xmlns="http://www.w3.org/2000/svg">
<g id="rocketpunch_footer 1">
<g id="Group">
<path id="Vector" d="M34.0622 45.6734C34.2068 45.5431 34.3449 45.413 34.4798 45.2826L34.5456 45.2158C34.664 45.0956 34.7856 44.9755 34.8974 44.8553C34.937 44.8151 34.973 44.7717 35.0093 44.7318L35.292 44.4213L35.4664 44.2077C35.529 44.1309 35.5981 44.0539 35.6571 43.9772C35.7755 43.8271 35.8906 43.6733 35.9859 43.5232L35.9878 43.5204L35.9924 43.5133C37.1277 41.9692 37.7477 40.0972 37.7618 38.1703C37.7558 36.1125 37.1581 34.1011 36.0417 32.3832C35.9101 32.1561 35.7457 31.9358 35.5813 31.7152C34.9297 30.7811 34.1551 29.9418 33.2792 29.2207C33.2624 29.2053 33.2448 29.1907 33.2267 29.1773L33.1896 29.1558L33.1806 29.1539C33.0983 29.0972 33.0558 29.0739 33.0558 29.0739C32.9631 29.0189 32.8637 28.9773 32.7597 28.9504C32.6744 28.9311 32.5872 28.921 32.5 28.9204C32.4301 28.9207 32.3605 28.9295 32.2928 28.9471C32.1227 28.9958 31.9638 29.0785 31.8259 29.1907C31.7734 29.2276 31.7108 29.2776 31.645 29.3343C30.6313 30.2148 29.7454 31.2367 29.0141 32.3697C27.8918 34.0901 27.2905 36.1064 27.2843 38.17C27.284 39.5574 27.6074 40.925 28.2273 42.1614L28.3433 42.3608C28.3861 42.4444 28.4353 42.5244 28.4814 42.608C29.1609 43.6915 29.9894 44.6708 30.9414 45.5164C31.5518 46.0262 32.113 46.4695 32.6186 46.8496C32.9463 46.6065 33.2741 46.3604 33.5657 46.1074C33.6186 46.0636 33.6716 46.0191 33.7244 45.9745C33.7786 45.9278 33.8325 45.881 33.8853 45.834C33.9357 45.7892 33.9874 45.7446 34.0327 45.6998L34.0622 45.6734Z" fill="#AAAAAA"/>
<path id="Vector_2" d="M33.0327 53.4371L32.5558 53.1431L32.5279 53.1255C31.7671 53.5009 30.9934 53.9475 30.2331 54.4546C27.9465 55.9827 25.7839 58.0604 24.4655 60.4025C29.6839 62.3735 35.4277 62.3608 40.6375 60.3676C38.7576 57.3082 36.0685 55.238 33.0327 53.4371Z" fill="#AAAAAA"/>
<path id="Vector_3" d="M32.5008 15.1279C19.7868 15.1274 9.47967 25.5922 9.47913 38.5018C9.47886 46.2425 13.2524 53.4811 19.5566 57.8332C19.7245 57.5659 20.0097 57.1295 20.2594 56.7596C20.5091 56.3892 23.4021 52.2881 27.8359 49.8464C27.8075 49.8239 27.7338 49.7645 27.6916 49.7271L27.5995 49.6435C26.7781 48.9183 26.0506 48.1673 25.406 47.3934C25.357 47.3348 25.3034 47.2776 25.2557 47.2188C25.1441 47.0813 25.0434 46.941 24.9375 46.8022C24.8267 46.657 24.7108 46.5134 24.6063 46.3666C24.4516 46.1499 24.31 45.9296 24.1686 45.709C24.1258 45.6419 24.0776 45.5765 24.0359 45.5091C23.4872 44.6236 23.0441 43.7101 22.7093 42.7679L22.7074 42.761C22.7015 42.7498 22.6982 42.7377 22.6961 42.7253C22.6898 42.7135 22.6825 42.7014 22.6766 42.6876C22.2191 41.4303 21.9605 40.1073 21.9104 38.7675C21.8879 38.2032 21.8955 37.6381 21.9334 37.0746C21.9334 37.0545 21.9334 37.0344 21.9334 37.0179C21.9334 36.8744 21.9334 36.7842 21.9334 36.7842C21.9905 35.9966 22.1092 35.215 22.2885 34.4467C23.1205 30.9404 25.1168 28.2823 27.0635 26.4057H27.0473C27.8741 25.5994 28.7671 24.8676 29.7153 24.2178C30.2851 23.8193 30.8752 23.4505 31.4838 23.1131H31.5133C31.8194 22.9569 32.1574 22.8769 32.5 22.8794C32.7231 22.8785 32.9452 22.9135 33.1578 22.9828C33.1578 22.9828 33.5722 23.0496 35.0323 24.0748C35.292 24.2618 35.621 24.4821 35.9498 24.7428C37.1502 25.669 38.6685 27.0464 39.9958 28.876C41.7115 31.2275 43.1161 34.3309 43.1161 38.19C43.1161 38.4705 43.1161 38.7477 43.0931 39.0249C43.0931 39.1352 43.0733 39.2419 43.0635 39.3587C43.0635 39.5224 43.0405 39.6926 43.0208 39.8496C43.001 40.0066 42.9812 40.1334 42.9582 40.2737C42.9352 40.4139 42.9254 40.5308 42.9024 40.6543C42.8794 40.7777 42.8366 40.9881 42.8006 41.1352C42.7808 41.2386 42.761 41.3423 42.7348 41.4457C42.692 41.6228 42.6427 41.7796 42.5934 41.9666C42.5704 42.0535 42.5506 42.1401 42.5243 42.2237C42.465 42.4107 42.4027 42.5944 42.3369 42.7781C42.3139 42.8482 42.2909 42.9183 42.2646 42.9852C42.1923 43.1821 42.1132 43.3759 42.0311 43.5695L41.9621 43.7332C41.8732 43.9369 41.7746 44.1404 41.6761 44.3409C41.653 44.3844 41.6333 44.4278 41.6135 44.4713C41.5049 44.6783 41.3898 44.8854 41.2847 45.0925C41.2649 45.1258 41.2484 45.1593 41.2289 45.1893C41.1041 45.4063 40.9724 45.6166 40.8343 45.827L40.7883 45.8971C40.6469 46.1141 40.4955 46.3314 40.3376 46.545C40.3287 46.5618 40.3176 46.5775 40.3048 46.5918C40.1437 46.8121 39.976 47.0293 39.7984 47.2598L39.7745 47.2862C39.5936 47.5064 39.4062 47.7237 39.2123 47.9541C39.0149 48.1744 38.8112 48.3917 38.5972 48.6221C38.1636 49.0492 37.7116 49.4672 37.2417 49.8769L37.5055 50.0279C41.2885 52.2153 43.8834 55.5642 44.6119 56.5746C44.7256 56.7308 44.8004 56.8391 44.8326 56.8867C45.0826 57.2574 45.3161 57.6281 45.4707 57.8885C51.7844 53.5237 55.5506 46.2596 55.5208 38.504C55.5211 25.5942 45.2148 15.1285 32.5008 15.1279Z" fill="#AAAAAA"/>
<path id="Vector_4" d="M32.5277 53.1249L32.5319 53.1228L32.5307 53.1221L32.5265 53.1242L32.5277 53.1249Z" fill="#AAAAAA"/>
</g>
</g>
</svg>
