<svg width="128" height="128" viewBox="0 0 128 128" fill="none" xmlns="http://www.w3.org/2000/svg">
<g id="Symbol_strategicMarket">
<path id="Subtract" fill-rule="evenodd" clip-rule="evenodd" d="M92.2952 25.5626L90.3015 27.5563L91.5085 32.3843C83.9023 26.5009 74.36 23 64 23C39.1472 23 19 43.1472 19 68C19 92.8528 39.1472 113 64 113C88.8528 113 109 92.8528 109 68C109 57.6399 105.499 48.0976 99.6156 40.4914L104.444 41.6984L106.437 39.7047C111.846 47.8011 115 57.5322 115 68C115 96.1665 92.1665 119 64 119C35.8335 119 13 96.1665 13 68C13 39.8335 35.8335 17 64 17C74.4677 17 84.1989 20.1536 92.2952 25.5626ZM88.6043 37.7391C81.8928 32.2755 73.3289 29 64 29C42.4609 29 25 46.4609 25 68C25 89.5391 42.4609 107 64 107C85.5391 107 103 89.5391 103 68C103 58.6712 99.7246 50.1075 94.2612 43.396L89.992 47.6651C94.3826 53.2691 97 60.3289 97 68C97 86.2254 82.2254 101 64 101C45.7746 101 31 86.2254 31 68C31 49.7746 45.7746 35 64 35C71.6712 35 78.7311 37.6175 84.3352 42.0082L88.6043 37.7391ZM64 95C78.9117 95 91 82.9117 91 68C91 53.0883 78.9117 41 64 41C49.0883 41 37 53.0883 37 68C37 82.9117 49.0883 95 64 95ZM57.0509 62.7308C57.0509 63.939 58.0402 64.9167 59.2627 64.9167H68.7373C71.9786 64.9167 74.7212 67.0151 75.6542 69.9084C75.8794 70.6 76 71.3313 76 72.0943C76 72.8574 75.8794 73.5887 75.6542 74.2802C74.7212 77.1736 71.9786 79.272 68.7373 79.272H66.5255V83H61.4745V79.272H52.2654V74.2802H68.7373C69.9598 74.2802 70.9491 73.3025 70.9491 72.0943C70.9491 70.8861 69.9598 69.9084 68.7373 69.9084H59.2627C55.2493 69.9084 52 66.6972 52 62.7308C52 61.9677 52.1206 61.2364 52.3458 60.5449C53.2788 57.6515 56.0215 55.5531 59.2627 55.5531H61.4745V52H66.5255V55.5531H75.5898V60.5449H59.2627C58.0402 60.5449 57.0509 61.5225 57.0509 62.7308Z" fill="black"/>
<path id="Exclude" fill-rule="evenodd" clip-rule="evenodd" d="M64 119C92.1665 119 115 96.1665 115 68C115 39.8335 92.1665 17 64 17C35.8335 17 13 39.8335 13 68C13 96.1665 35.8335 119 64 119ZM64 113C88.8528 113 109 92.8528 109 68C109 43.1472 88.8528 23 64 23C39.1472 23 19 43.1472 19 68C19 92.8528 39.1472 113 64 113Z" fill="#A1AAB7"/>
<path id="Vector" d="M68.7373 64.9167H59.2627C58.0402 64.9167 57.0509 63.939 57.0509 62.7308C57.0509 61.5225 58.0402 60.5449 59.2627 60.5449H75.5898V55.5531H66.5255V52H61.4745V55.5531H59.2627C56.0214 55.5531 53.2788 57.6515 52.3458 60.5449C52.1206 61.2364 52 61.9677 52 62.7308C52 66.6972 55.2493 69.9084 59.2627 69.9084H68.7373C69.9598 69.9084 70.9491 70.8861 70.9491 72.0943C70.9491 73.3025 69.9598 74.2802 68.7373 74.2802H52.2654V79.272H61.4745V83H66.5255V79.272H68.7373C71.9786 79.272 74.7212 77.1736 75.6542 74.2802C75.8794 73.5887 76 72.8574 76 72.0943C76 71.3313 75.8794 70.6 75.6542 69.9084C74.7212 67.0151 71.9786 64.9167 68.7373 64.9167Z" fill="#14FFF7"/>
<g id="Group 13">
<path id="Union" fill-rule="evenodd" clip-rule="evenodd" d="M93.1301 27.5563L108.686 12L110.101 21.8994L110.101 21.8994L120 23.3136L104.444 38.8699L97.0192 37.8093L81.4438 53.3847L79 53L78.6154 50.5563L94.1907 34.9809L93.1301 27.5563Z" fill="#14FFF7"/>
</g>
</g>
</svg>
