<svg width="129" height="128" viewBox="0 0 129 128" fill="none" xmlns="http://www.w3.org/2000/svg">
<path d="M125.5 112H13.5V116H125.5V112Z" fill="black"/>
<path fill-rule="evenodd" clip-rule="evenodd" d="M48.9802 46C51.3111 34.0323 61.85 25 74.5 25C88.8603 25 100.5 36.6397 100.5 51C100.5 65.3603 88.8603 77 74.5 77C61.85 77 51.3111 67.9677 48.9802 56H17.5V46H48.9802ZM54.4793 51C54.4793 62.0617 63.4483 71.0207 74.5 71.0207C85.5617 71.0207 94.5207 62.0617 94.5207 51C94.5207 39.9383 85.5617 30.9793 74.5 30.9793C63.4383 30.9793 54.4793 39.9383 54.4793 51Z" fill="#14FFF7"/>
<path d="M45.5 90H25.5V112H45.5V90Z" fill="black"/>
<path fill-rule="evenodd" clip-rule="evenodd" d="M79.5 81.5988C77.8723 81.8627 76.2022 81.9999 74.5 81.9999C69.0587 81.9999 63.9449 80.598 59.5 78.1357V112H79.5V81.5988Z" fill="black"/>
<path fill-rule="evenodd" clip-rule="evenodd" d="M79.5 81.5988C77.8723 81.8627 76.2022 81.9999 74.5 81.9999C69.0587 81.9999 63.9449 80.598 59.5 78.1357V112H79.5V81.5988Z" fill="#A1AAB7"/>
<path fill-rule="evenodd" clip-rule="evenodd" d="M93.5 18H113.5V112H93.5V75.4967C100.802 69.8253 105.5 60.9613 105.5 51C105.5 41.0387 100.802 32.1747 93.5 26.5033V18Z" fill="black"/>
</svg>
