<svg width="48" height="76" viewBox="0 0 48 76" fill="none" xmlns="http://www.w3.org/2000/svg">
<path d="M11.1797 9.9375V8.6875H19.7109V9.9375H16.1641V20H14.7422V9.9375H11.1797ZM23.6484 20.1719C21.3359 20.1719 19.7734 18.4375 19.7734 15.7969C19.7734 13.1562 21.3359 11.4062 23.6484 11.4062C25.9453 11.4062 27.4922 13.1562 27.4922 15.7969C27.4922 18.4375 25.9453 20.1719 23.6484 20.1719ZM23.6484 18.9844C25.3516 18.9844 26.1484 17.4844 26.1484 15.7969C26.1484 14.1094 25.3516 12.5938 23.6484 12.5938C21.9141 12.5938 21.1172 14.1094 21.1172 15.7969C21.1172 17.4844 21.9141 18.9844 23.6484 18.9844ZM29.2578 23.1875V11.5156H30.5547V12.8594H30.7109C30.9922 12.4062 31.5234 11.4062 33.1641 11.4062C35.2891 11.4062 36.7734 13.0938 36.7734 15.7812C36.7734 18.4688 35.2891 20.1719 33.1797 20.1719C31.5547 20.1719 30.9922 19.1719 30.7109 18.7031H30.6016V23.1875H29.2578ZM30.5703 15.75C30.5703 17.6562 31.4297 18.9688 32.9922 18.9688C34.6016 18.9688 35.4297 17.5625 35.4297 15.75C35.4297 13.9844 34.6172 12.6094 32.9922 12.6094C31.3984 12.6094 30.5703 13.875 30.5703 15.75Z" fill="#444444"/>
<circle cx="24" cy="52" r="24" fill="#5CF7EF"/>
<g clip-path="url(#clip0_155_705)">
<path d="M16.4087 56.4087C16.7989 56.7989 17.4315 56.7992 17.8221 56.4094L24 50.245L30.1779 56.4094C30.5685 56.7992 31.2011 56.7989 31.5913 56.4087L32.2929 55.7071C32.6834 55.3166 32.6834 54.6834 32.2929 54.2929L24.7071 46.7071C24.3166 46.3166 23.6834 46.3166 23.2929 46.7071L15.7071 54.2929C15.3166 54.6834 15.3166 55.3166 15.7071 55.7071L16.4087 56.4087Z" fill="#444444"/>
</g>
<defs>
<clipPath id="clip0_155_705">
<rect width="36" height="36" fill="white" transform="translate(6 34)"/>
</clipPath>
</defs>
</svg>
