<svg width="14" height="14" viewBox="0 0 14 14" fill="none" xmlns="http://www.w3.org/2000/svg">
<path d="M4.63137 1.4315C4.46733 1.59559 4.37518 1.81811 4.37518 2.05013C4.37518 2.28214 4.46733 2.50466 4.63137 2.66875L8.96262 7L4.63137 11.3313C4.47198 11.4963 4.38379 11.7173 4.38578 11.9467C4.38777 12.1761 4.4798 12.3956 4.64203 12.5578C4.80426 12.7201 5.02372 12.8121 5.25315 12.8141C5.48257 12.8161 5.70359 12.7279 5.86862 12.5685L10.8185 7.61862C10.9825 7.45454 11.0747 7.23202 11.0747 7C11.0747 6.76798 10.9825 6.54546 10.8185 6.38138L5.86862 1.4315C5.70453 1.26746 5.48201 1.17531 5.25 1.17531C5.01798 1.17531 4.79546 1.26746 4.63137 1.4315Z" fill="#AAAAAA"/>
</svg>
