<svg width="50" height="52" viewBox="0 0 50 52" fill="none" xmlns="http://www.w3.org/2000/svg">
<path id="Vector" d="M1.24942 35.0157L3.43828 36.4757V52H0.337402V0H1.24942V14.6988H2.34385V26.8293H1.24942V35.0234V35.0157ZM6.54675 23.8865H7.64118V11.756H6.54675V0H5.63473V52H8.5608V33.5634L6.55435 32.1035V23.8865H6.54675ZM11.6617 20.9437H12.9385V8.81317H11.6617V0H10.7497V52H13.8581V30.6512L11.6693 29.0078V20.9437H11.6617ZM16.9666 18.0085H18.2434V5.878H16.9666V0H16.0546V52H19.1631V27.7389L16.9742 26.0955V18.0085H16.9666ZM22.2639 15.0657H23.3584V2.94282H22.2639V0H21.3519V52H24.4604V24.8267L22.2715 23.3667V15.0657H22.2639ZM25.7296 14.844L27.7361 16.304V24.4445H26.6416V36.575H27.7361V52.0076H28.6481V0H25.722V14.844H25.7296ZM30.8521 17.7563L33.041 19.2162V27.3797H31.9466V39.5102H33.041V52.0076H33.953V0H30.8445V17.7563H30.8521ZM36.1495 20.6685L38.3383 22.1285V30.1391H37.0615V42.2696H38.3383V52.0076H39.2503V0H36.1419V20.6685H36.1495ZM41.4468 23.5808L43.6357 25.0407V33.0742H42.3588V45.2048H43.6357V52H44.5477V0H41.4392V23.5808H41.4468ZM46.5617 0V26.493L48.7506 27.953V36.0171H47.6561V48.1476H48.7506V52.0076H49.6626V0H46.5541H46.5617Z" fill="#221E1F"/>
</svg>
