<svg width="165" height="52" viewBox="0 0 165 52" fill="none" xmlns="http://www.w3.org/2000/svg">
<g id="Layer_1" clip-path="url(#clip0_22_500)">
<g id="Group">
<path id="Vector" d="M77.1191 22.7784C77.1191 24.1619 76.8607 25.3773 76.3438 26.4321C75.827 27.4869 75.105 28.3354 74.1854 28.9851L76.0626 32.249H73.129L71.8521 30.0094C71.5101 30.0934 71.1681 30.1622 70.8109 30.2004C70.4613 30.2463 70.0889 30.2616 69.7013 30.2616C68.5841 30.2616 67.5656 30.0858 66.6536 29.7265C65.7416 29.3749 64.9588 28.8704 64.3128 28.2131C63.6591 27.5557 63.1575 26.7761 62.8079 25.8588C62.4583 24.9416 62.2759 23.9173 62.2759 22.7784C62.2759 21.6395 62.4507 20.6153 62.8079 19.698C63.1575 18.7808 63.6591 18.0011 64.3128 17.3514C64.9664 16.7017 65.7416 16.2049 66.6536 15.8456C67.5656 15.494 68.5841 15.3105 69.7013 15.3105C70.8185 15.3105 71.8369 15.4864 72.749 15.8456C73.661 16.1972 74.4438 16.7017 75.0898 17.3514C75.7434 18.0011 76.245 18.7808 76.5947 19.698C76.9443 20.6153 77.1267 21.6395 77.1267 22.7784H77.1191ZM73.927 22.7784C73.927 21.9835 73.8206 21.2726 73.6078 20.6535C73.395 20.0267 73.1062 19.5069 72.7338 19.0865C72.3613 18.6661 71.9205 18.3451 71.4037 18.1234C70.8869 17.9018 70.3169 17.7947 69.7013 17.7947C69.0857 17.7947 68.5157 17.9018 67.9988 18.1234C67.482 18.3451 67.0412 18.6661 66.6688 19.0865C66.2964 19.5069 66.0076 20.0343 65.7948 20.6535C65.582 21.2803 65.4756 21.9835 65.4756 22.7784C65.4756 23.5734 65.582 24.2842 65.7948 24.9034C66.0076 25.5302 66.2964 26.0499 66.6688 26.478C67.0412 26.906 67.482 27.2271 67.9988 27.4487C68.5157 27.6704 69.0857 27.7774 69.7013 27.7774C70.0205 27.7774 70.2941 27.7545 70.5373 27.701L68.4777 24.1084H71.4113L72.7414 26.455C73.1214 26.027 73.4102 25.5072 73.6154 24.8957C73.8206 24.2842 73.927 23.5734 73.927 22.7708V22.7784Z" fill="#221E1F"/>
<path id="Vector_2" d="M85.4717 30.2618C84.6052 30.2618 83.8072 30.1624 83.0624 29.9561C82.3176 29.7573 81.6792 29.4439 81.1396 29.0312C80.6 28.6184 80.1743 28.0834 79.8627 27.4413C79.5511 26.7992 79.3991 26.0425 79.3991 25.1788V15.5859H82.5912V24.9571C82.5912 25.8743 82.842 26.5776 83.3512 27.0591C83.8528 27.5407 84.5672 27.7853 85.4793 27.7853C86.3913 27.7853 87.0981 27.5407 87.6073 27.0591C88.1089 26.5776 88.3673 25.8743 88.3673 24.9571V15.5859H91.5594V25.1788C91.5594 26.0501 91.4074 26.7992 91.0958 27.4413C90.7842 28.0834 90.3586 28.6108 89.819 29.0312C89.2794 29.4516 88.6333 29.7573 87.8961 29.9561C87.1513 30.1548 86.3533 30.2618 85.4869 30.2618H85.4717Z" fill="#221E1F"/>
<path id="Vector_3" d="M102.177 26.9824H96.6667L95.6483 29.994H92.4562L97.784 15.5933H101.067L106.395 29.994H103.203L102.184 26.9824H102.177ZM99.19 19.568L97.4952 24.5364H101.341L99.6612 19.568L99.4256 18.7272L99.19 19.568Z" fill="#221E1F"/>
<path id="Vector_4" d="M116.807 24.98V15.5859H119.984V29.9866H117.522L111.449 21.4945L111.031 20.5926V29.9866H107.854V15.5859H110.317L116.389 24.0781L116.807 24.98Z" fill="#221E1F"/>
<path id="Vector_5" d="M121.626 15.5859H133.923V18.0778H129.378V29.9866H126.171V18.0778H121.626V15.5859Z" fill="#221E1F"/>
<path id="Vector_6" d="M141.637 30.2618C140.771 30.2618 139.973 30.1624 139.228 29.9561C138.483 29.7573 137.845 29.4439 137.305 29.0312C136.765 28.6184 136.34 28.0834 136.028 27.4413C135.716 26.7992 135.564 26.0425 135.564 25.1788V15.5859H138.757V24.9571C138.757 25.8743 139.007 26.5776 139.517 27.0591C140.018 27.5407 140.733 27.7853 141.645 27.7853C142.557 27.7853 143.263 27.5407 143.773 27.0591C144.274 26.5776 144.533 25.8743 144.533 24.9571V15.5859H147.725V25.1788C147.725 26.0501 147.573 26.7992 147.261 27.4413C146.95 28.0834 146.524 28.6108 145.984 29.0312C145.445 29.4516 144.799 29.7573 144.061 29.9561C143.317 30.1548 142.519 30.2618 141.652 30.2618H141.637Z" fill="#221E1F"/>
<path id="Vector_7" d="M153.729 21.4407L153.44 20.3247V29.994H150.263V15.5933H153.896L157.347 23.8637L157.635 24.9109L157.924 23.8637L161.375 15.5933H165.008V29.994H161.831V20.3247L161.542 21.4407L158.73 28.4499H156.541L153.729 21.4407Z" fill="#221E1F"/>
<path id="Vector_8" d="M62.7243 52.0001V37.9663H66.988C69.3897 37.9663 71.1833 38.5778 72.3538 39.8008C73.5242 41.0238 74.1094 42.7513 74.1094 44.9756C74.1094 47.1999 73.5242 48.9274 72.3538 50.158C71.1833 51.3886 69.3973 52.0001 66.988 52.0001H62.7243ZM63.6211 38.7918V51.1746H66.8588C67.8468 51.1746 68.7285 51.0599 69.5189 50.823C70.3017 50.5937 70.9705 50.2268 71.5177 49.7223C72.0649 49.2178 72.483 48.5757 72.7794 47.7961C73.0682 47.0164 73.2202 46.0686 73.2202 44.9679C73.2202 43.8672 73.0758 42.9271 72.7794 42.1398C72.4906 41.3601 72.0649 40.718 71.5177 40.2212C70.9705 39.7244 70.3017 39.3651 69.5189 39.1281C68.7361 38.8988 67.8468 38.7765 66.8588 38.7765H63.6211V38.7918Z" fill="#221E1F"/>
<path id="Vector_9" d="M80.6379 37.9663L86.3837 52.0001H85.3805L83.7008 47.819H76.9671L75.3102 52.0001H74.307L80.0527 37.9663H80.6379ZM77.3015 46.9935H83.374L80.3491 39.3804L77.3015 46.9935Z" fill="#221E1F"/>
<path id="Vector_10" d="M85.6541 37.9663H97.1988V38.7918H91.871V52.0001H90.9742V38.7918H85.6465V37.9663H85.6541Z" fill="#221E1F"/>
<path id="Vector_11" d="M102.815 37.9663L108.561 52.0001H107.558L105.878 47.819H99.1444L97.4876 52.0001H96.4843L102.23 37.9663H102.815ZM99.4788 46.9935H105.551L102.526 39.3804L99.4788 46.9935Z" fill="#221E1F"/>
</g>
<path id="Vector_12" d="M0.912022 35.0157L3.10088 36.4757V52H0V0H0.912022V14.6988H2.00645V26.8293H0.912022V35.0234V35.0157ZM6.20935 23.8865H7.30378V11.756H6.20935V0H5.29733V52H8.2234V33.5634L6.21695 32.1035V23.8865H6.20935ZM11.3243 20.9437H12.6011V8.81317H11.3243V0H10.4123V52H13.5207V30.6512L11.3319 29.0078V20.9437H11.3243ZM16.6292 18.0085H17.906V5.878H16.6292V0H15.7172V52H18.8257V27.7389L16.6368 26.0955V18.0085H16.6292ZM21.9265 15.0657H23.021V2.94282H21.9265V0H21.0145V52H24.123V24.8267L21.9341 23.3667V15.0657H21.9265ZM25.3922 14.844L27.3987 16.304V24.4445H26.3042V36.575H27.3987V52.0076H28.3107V0H25.3846V14.844H25.3922ZM30.5147 17.7563L32.7036 19.2162V27.3797H31.6092V39.5102H32.7036V52.0076H33.6156V0H30.5071V17.7563H30.5147ZM35.8121 20.6685L38.0009 22.1285V30.1391H36.7241V42.2696H38.0009V52.0076H38.9129V0H35.8045V20.6685H35.8121ZM41.1094 23.5808L43.2982 25.0407V33.0742H42.0214V45.2048H43.2982V52H44.2103V0H41.1018V23.5808H41.1094ZM46.2243 0V26.493L48.4132 27.953V36.0171H47.3187V48.1476H48.4132V52.0076H49.3252V0H46.2167H46.2243Z" fill="#221E1F"/>
</g>
<defs>
<clipPath id="clip0_22_500">
<rect width="165" height="52" fill="white"/>
</clipPath>
</defs>
</svg>
