<svg width="32" height="32" viewBox="0 0 32 32" fill="none" xmlns="http://www.w3.org/2000/svg">
<g id="Group">
<path id="Vector" d="M16.8285 20.9108C16.9275 20.8216 17.0221 20.7326 17.1144 20.6433L17.1594 20.5976C17.2405 20.5153 17.3237 20.433 17.4003 20.3508C17.4274 20.3233 17.452 20.2935 17.4769 20.2662L17.6704 20.0537L17.7898 19.9074C17.8327 19.8549 17.8799 19.8022 17.9204 19.7497C18.0014 19.6469 18.0802 19.5416 18.1454 19.4388L18.1467 19.4369L18.1499 19.4321C18.9271 18.375 19.3515 17.0935 19.3612 15.7743C19.3571 14.3656 18.9479 12.9887 18.1836 11.8126C18.0935 11.6571 17.981 11.5063 17.8685 11.3553C17.4224 10.7158 16.8921 10.1412 16.2925 9.6476C16.281 9.63705 16.2689 9.62708 16.2565 9.61785L16.2311 9.60317L16.225 9.60185C16.1686 9.56307 16.1395 9.54706 16.1395 9.54706C16.0761 9.50941 16.0081 9.48099 15.9369 9.46254C15.8785 9.44936 15.8188 9.44239 15.7591 9.44202C15.7112 9.4422 15.6636 9.44823 15.6172 9.46028C15.5008 9.4936 15.392 9.55027 15.2976 9.62708C15.2616 9.6523 15.2188 9.68657 15.1737 9.72535C14.4797 10.3282 13.8733 11.0277 13.3727 11.8034C12.6043 12.9811 12.1927 14.3614 12.1885 15.7742C12.1883 16.7239 12.4097 17.6601 12.8341 18.5066L12.9134 18.6431C12.9427 18.7003 12.9765 18.7551 13.008 18.8123C13.4732 19.554 14.0403 20.2244 14.692 20.8033C15.11 21.1524 15.4941 21.4559 15.8403 21.716C16.0646 21.5496 16.289 21.3811 16.4886 21.2079C16.5248 21.178 16.5611 21.1475 16.5973 21.117C16.6344 21.085 16.6713 21.053 16.7074 21.0208C16.7419 20.9901 16.7773 20.9596 16.8083 20.9289L16.8285 20.9108Z" fill="#AAAAAA"/>
<path id="Vector_2" d="M16.1248 26.2258L15.7983 26.0245L15.7792 26.0125C15.2584 26.2694 14.7287 26.5752 14.2082 26.9223C12.6428 27.9685 11.1623 29.3908 10.2598 30.9942C13.8322 32.3435 17.7643 32.3348 21.3308 30.9703C20.0439 28.8759 18.203 27.4587 16.1248 26.2258Z" fill="#AAAAAA"/>
<path id="Vector_3" d="M15.7602 1.48409e-08C7.05644 -0.000376506 0.000370826 7.16369 9.97966e-09 16.0014C-0.000185398 21.3005 2.5831 26.2559 6.89885 29.2353C7.0138 29.0523 7.20903 28.7536 7.37998 28.5004C7.55093 28.2468 9.53145 25.4393 12.5668 23.7677C12.5473 23.7523 12.4969 23.7116 12.4679 23.686L12.4049 23.6288C11.8426 23.1323 11.3446 22.6182 10.9033 22.0884C10.8697 22.0483 10.833 22.0091 10.8004 21.9689C10.724 21.8747 10.655 21.7787 10.5825 21.6836C10.5067 21.5842 10.4273 21.486 10.3558 21.3854C10.2499 21.2371 10.1529 21.0863 10.0562 20.9353C10.0269 20.8894 9.99386 20.8446 9.96531 20.7984C9.58967 20.1922 9.28634 19.5668 9.05718 18.9219L9.05588 18.9172C9.0518 18.9094 9.04958 18.9012 9.0481 18.8927C9.04383 18.8846 9.03883 18.8763 9.03475 18.8669C8.72159 18.0062 8.54453 17.1004 8.51023 16.1832C8.49484 15.7969 8.50003 15.4101 8.52599 15.0243C8.52599 15.0106 8.52599 14.9968 8.52599 14.9855C8.52599 14.8873 8.52599 14.8255 8.52599 14.8255C8.56511 14.2863 8.64632 13.7513 8.76906 13.2253C9.33863 10.825 10.7053 9.00525 12.038 7.72056H12.0269C12.5929 7.16858 13.2042 6.66762 13.8533 6.22276C14.2434 5.94997 14.6474 5.69751 15.064 5.46652H15.0842C15.2937 5.35959 15.5251 5.3048 15.7597 5.3065C15.9125 5.30593 16.0645 5.32984 16.21 5.37728C16.21 5.37728 16.4937 5.42303 17.4932 6.12487C17.6711 6.25288 17.8963 6.40368 18.1214 6.58215C18.9431 7.21621 19.9825 8.15921 20.8912 9.4117C22.0658 11.0215 23.0273 13.146 23.0273 15.7879C23.0273 15.9799 23.0273 16.1697 23.0115 16.3595C23.0115 16.4349 22.998 16.508 22.9913 16.588C22.9913 16.7 22.9756 16.8165 22.962 16.924C22.9485 17.0315 22.935 17.1183 22.9192 17.2143C22.9034 17.3104 22.8968 17.3904 22.881 17.4749C22.8653 17.5594 22.836 17.7034 22.8113 17.8042C22.7978 17.875 22.7842 17.9459 22.7662 18.0167C22.737 18.138 22.7032 18.2453 22.6695 18.3733C22.6537 18.4328 22.6402 18.4921 22.6222 18.5493C22.5816 18.6773 22.5389 18.8031 22.4939 18.9288C22.4781 18.9768 22.4624 19.0248 22.4444 19.0706C22.3949 19.2054 22.3407 19.3381 22.2846 19.4706L22.2373 19.5827C22.1765 19.7222 22.109 19.8615 22.0415 19.9987C22.0257 20.0285 22.0122 20.0582 21.9987 20.088C21.9243 20.2297 21.8455 20.3715 21.7736 20.5132C21.76 20.536 21.7487 20.559 21.7354 20.5795C21.6499 20.728 21.5598 20.8721 21.4652 21.0161L21.4337 21.0641C21.3369 21.2126 21.2333 21.3613 21.1252 21.5076C21.1191 21.5191 21.1115 21.5298 21.1028 21.5396C20.9924 21.6904 20.8777 21.8391 20.7561 21.9969L20.7397 22.015C20.6159 22.1658 20.4876 22.3145 20.3548 22.4723C20.2197 22.6231 20.0802 22.7718 19.9338 22.9296C19.6369 23.2219 19.3275 23.5081 19.0058 23.7886L19.1864 23.8919C21.7762 25.3894 23.5526 27.682 24.0513 28.3737C24.1292 28.4806 24.1804 28.5548 24.2024 28.5873C24.3735 28.8411 24.5334 29.0949 24.6392 29.2732C28.9615 26.2851 31.5398 21.3122 31.5194 16.0029C31.5195 7.165 24.464 0.000376536 15.7602 1.48409e-08Z" fill="#AAAAAA"/>
<path id="Vector_4" d="M15.7791 26.0126L15.7826 26.0108L15.7816 26.0103L15.7782 26.012L15.7791 26.0126Z" fill="#AAAAAA"/>
</g>
</svg>
