<svg width="128" height="128" viewBox="0 0 128 128" fill="none" xmlns="http://www.w3.org/2000/svg">
<g id="Symbol_itemExtraction">
<g id="Group 38685">
<path id="Exclude" fill-rule="evenodd" clip-rule="evenodd" d="M91 124C109.225 124 124 109.225 124 91C124 72.7746 109.225 58 91 58C72.7746 58 58 72.7746 58 91C58 109.225 72.7746 124 91 124ZM91 118C105.912 118 118 105.912 118 91C118 76.0883 105.912 64 91 64C76.0883 64 64 76.0883 64 91C64 105.912 76.0883 118 91 118Z" fill="black"/>
<path id="Exclude_2" fill-rule="evenodd" clip-rule="evenodd" d="M91 114C103.703 114 114 103.703 114 91C114 78.2975 103.703 68 91 68C78.2975 68 68 78.2975 68 91C68 103.703 78.2975 114 91 114ZM85.2091 86.3461C85.2091 87.3984 86.0335 88.25 87.0523 88.25H94.9477C97.6488 88.25 99.9343 90.0777 100.712 92.5977C100.899 93.2 101 93.8369 101 94.5015C101 95.1661 100.899 95.8031 100.712 96.4054C99.9343 98.9254 97.6488 100.753 94.9477 100.753H93.1046V104H88.8954V100.753H81.2212V96.4054H94.9477C95.9665 96.4054 96.7909 95.5538 96.7909 94.5015C96.7909 93.4492 95.9665 92.5977 94.9477 92.5977H87.0523C83.7078 92.5977 81 89.8008 81 86.3461C81 85.6815 81.1005 85.0446 81.2882 84.4423C82.0657 81.9223 84.3512 80.0946 87.0523 80.0946H88.8954V77H93.1046V80.0946H100.658V84.4423H87.0523C86.0335 84.4423 85.2091 85.2938 85.2091 86.3461Z" fill="black"/>
</g>
<path id="Vector" d="M94.9477 88.25H87.0523C86.0335 88.25 85.2091 87.3984 85.2091 86.3461C85.2091 85.2938 86.0335 84.4423 87.0523 84.4423H100.658V80.0946H93.1046V77H88.8954V80.0946H87.0523C84.3512 80.0946 82.0657 81.9223 81.2882 84.4423C81.1005 85.0446 81 85.6815 81 86.3461C81 89.8008 83.7078 92.5977 87.0523 92.5977H94.9477C95.9665 92.5977 96.7909 93.4492 96.7909 94.5015C96.7909 95.5538 95.9665 96.4054 94.9477 96.4054H81.2212V100.753H88.8954V104H93.1046V100.753H94.9477C97.6488 100.753 99.9343 98.9254 100.712 96.4054C100.899 95.8031 101 95.1661 101 94.5015C101 93.8369 100.899 93.2 100.712 92.5977C99.9343 90.0777 97.6488 88.25 94.9477 88.25Z" fill="#14FFF7"/>
<g id="Group 14">
<rect id="Rectangle 39" x="24" y="34" width="60" height="16" fill="black"/>
<rect id="Rectangle 40" x="12" y="12" width="60" height="16" fill="#A1AAB7"/>
<path id="Subtract" fill-rule="evenodd" clip-rule="evenodd" d="M72 59.2444V56H12V72H59.2444C62.38 66.7707 66.7707 62.38 72 59.2444ZM56.3483 78H18V94H54.1199C54.0405 93.0105 54 92.01 54 91C54 86.4253 54.8302 82.0444 56.3483 78ZM55.1023 100H12V116H63.7233C59.6299 111.536 56.6178 106.064 55.1023 100Z" fill="black"/>
<path id="Subtract_2" fill-rule="evenodd" clip-rule="evenodd" d="M55.1023 100H12V116H63.7233C59.6299 111.536 56.6178 106.064 55.1023 100Z" fill="#A1AAB7"/>
<path id="Subtract_3" fill-rule="evenodd" clip-rule="evenodd" d="M72 59.2444V56H12V72H59.2444C62.38 66.7707 66.7707 62.38 72 59.2444Z" fill="#A1AAB7"/>
</g>
</g>
</svg>
