<svg width="128" height="128" viewBox="0 0 128 128" fill="none" xmlns="http://www.w3.org/2000/svg">
<g id="Symbol_training">
<path id="Union" fill-rule="evenodd" clip-rule="evenodd" d="M20 12H108V72H77V82H93V92H75.6219C75.8687 91.0411 76 90.0359 76 89C76 82.3726 70.6274 77 64 77C57.3726 77 52 82.3726 52 89C52 90.0359 52.1313 91.0411 52.3781 92H35V82H51V72H20V12ZM26 18H102V61H26V18Z" fill="black"/>
<g id="Group 38676">
<g id="Group 38674">
<circle id="Ellipse 97" cx="64" cy="89" r="8" fill="#A1AAB7"/>
</g>
<path id="Union_2" fill-rule="evenodd" clip-rule="evenodd" d="M48 110.081L48 109.5H48.0338C48.4116 106.759 52.7224 102.861 56.6478 100.807C57.3137 100.451 58.0121 100.176 58.7267 99.9337C62.4624 98.6888 66.5391 98.6888 70.2748 99.9337C70.9894 100.176 71.7041 100.467 72.3537 100.807C76.2782 102.86 80.5878 106.772 80.9674 109.5H81V114H48L48 110.081Z" fill="#A1AAB7"/>
</g>
<g id="Group 38678">
<g id="Group 38674_2">
<circle id="Ellipse 97_2" cx="103" cy="89" r="8" fill="#A1AAB7"/>
</g>
<path id="Union_3" fill-rule="evenodd" clip-rule="evenodd" d="M87 110.081L87 109.5H87.0338C87.4116 106.759 91.7224 102.861 95.6478 100.807C96.3137 100.451 97.0121 100.176 97.7267 99.9337C101.462 98.6888 105.539 98.6888 109.275 99.9337C109.989 100.176 110.704 100.467 111.354 100.807C115.278 102.86 119.588 106.772 119.967 109.5H120V114H87L87 110.081Z" fill="#A1AAB7"/>
</g>
<g id="Group 38677">
<g id="Group 38674_3">
<circle id="Ellipse 97_3" cx="24" cy="89" r="8" fill="#A1AAB7"/>
</g>
<path id="Union_4" fill-rule="evenodd" clip-rule="evenodd" d="M8 110.081L8 109.5H8.03381C8.41164 106.759 12.7224 102.861 16.6478 100.807C17.3137 100.451 18.0121 100.176 18.7267 99.9337C22.4624 98.6888 26.5391 98.6888 30.2748 99.9337C30.9894 100.176 31.7041 100.467 32.3537 100.807C36.2782 102.86 40.5878 106.772 40.9674 109.5H41V114H8L8 110.081Z" fill="#A1AAB7"/>
</g>
<path id="Union_5" fill-rule="evenodd" clip-rule="evenodd" d="M80 22H70V28.8823L52.4807 45H47.5546L40 37.985V34H30V44H40V43.4436L45 48.0865V55H55V48.1176L72.5191 32H78.3333L88 39.25V46H98V36H90.3333L80 28.25V22Z" fill="#14FFF7"/>
</g>
</svg>
