<svg width="128" height="128" viewBox="0 0 128 128" fill="none" xmlns="http://www.w3.org/2000/svg">
<g id="Symbol_roboAdvisor">
<path id="Subtract" fill-rule="evenodd" clip-rule="evenodd" d="M25 51C25 31 41 12 67 12C70.7835 12 75.0127 12.9536 79.3019 14.6981L72 22H65C48.4315 22 35 34.4315 35 51C35 66.556 46.84 78.4948 62 80L76 94H90.0435L91 116H55L51 102H31L25 98L23 81L12 77V75L25 51Z" fill="black"/>
<g id="Group 15">
<path id="Union" fill-rule="evenodd" clip-rule="evenodd" d="M82 39H92V49H82V47H64C61.7909 47 60 48.7909 60 51C60 53.2091 61.7909 55 64 55H94.7574L104 45.7574V39H114V49H109.243L100.243 58L107.243 65H114V75H104V70.2426L94.7574 61H64C58.4772 61 54 56.5228 54 51C54 45.4772 58.4772 41 64 41H82V39Z" fill="#14FFF7"/>
<path id="Union_2" fill-rule="evenodd" clip-rule="evenodd" d="M114 14H104V16H86H84.7574L83.8787 16.8787L72.757 28.0003H64.8717C51.6759 28.0694 41 36.7879 41 51C41 63.4635 50.5004 72.8238 62.6545 73.8971L75.8787 87.1213L76.7574 88H78H96V90H106V80H96V82H79.2426L71.2427 74H85V76H95V66H85V68H63.8794C54.5572 68 47 60.3888 47 51C47 41.6112 54.5572 34 63.8794 34H91V36H101V26H91V28.0003H81.2423L87.2426 22H104V24H114V14Z" fill="#A1AAB7"/>
</g>
</g>
</svg>
