<svg width="128" height="128" viewBox="0 0 128 128" fill="none" xmlns="http://www.w3.org/2000/svg">
<path d="M62 50H39V56H62V50Z" fill="black"/>
<path d="M39 62H89V68H39V62Z" fill="black"/>
<path fill-rule="evenodd" clip-rule="evenodd" d="M71 14L101 44V116H27V14H71ZM89.5147 41L74 25.4853V41H89.5147ZM68 47V20H33V110H95V47H68Z" fill="black"/>
<path d="M89 90C89 97.732 82.732 104 75 104C67.268 104 61 97.732 61 90H75L75 76C82.732 76 89 82.268 89 90Z" fill="#14FFF7"/>
<path d="M75 89.9999L61 89.9999C61.0001 82.268 67.268 76 75 76L75 89.9999Z" fill="#A1AAB7"/>
<path d="M74 41H89.5L74 25.5V41Z" fill="#A1AAB7"/>
</svg>
