<svg width="128" height="128" viewBox="0 0 128 128" fill="none" xmlns="http://www.w3.org/2000/svg">
<g id="Symbol_broadCasting">
<path id="Union" fill-rule="evenodd" clip-rule="evenodd" d="M64 96C74.4934 96 83 87.3651 83 76.7135V68H89V76.1176C89 88.6393 80.4112 99.0842 69 101.482V106H90V116H38V106H59V101.482C47.5888 99.0842 39 88.6393 39 76.1176V68H45V76.7135C45 87.3651 53.5066 96 64 96Z" fill="black"/>
<path id="Subtract" fill-rule="evenodd" clip-rule="evenodd" d="M49.747 48.2414C49.3555 49.4243 49.1091 50.6726 49.0288 51.9655H64V55.6897H49V59.4138H64V63.138H49V77.1034C49 85.3306 55.7157 92 64 92C72.2843 92 79 85.3306 79 77.1034V52.8966C79 44.6694 72.2843 38 64 38C58.8444 38 54.2963 40.5831 51.5963 44.5172H64V48.2414H49.747Z" fill="black"/>
<rect id="Rectangle 50" x="49" y="59.4141" width="15" height="3.72414" fill="#14FFF7"/>
<rect id="Rectangle 51" x="49" y="51.9656" width="15" height="3.72414" fill="#14FFF7"/>
<path id="Intersect" fill-rule="evenodd" clip-rule="evenodd" d="M49.7468 48.2415C50.1885 46.9069 50.815 45.6556 51.5961 44.5173H63.9999V48.2415H49.7468Z" fill="#14FFF7"/>
<path id="Exclude" fill-rule="evenodd" clip-rule="evenodd" d="M114.02 68.9496C112.052 78.8426 107.195 87.93 100.062 95.0624L95.8198 90.8198C102.113 84.5264 106.399 76.5082 108.135 67.7791C109.872 59.0499 108.981 50.0019 105.575 41.7792C102.169 33.5566 96.4009 26.5285 89.0007 21.5839C81.6005 16.6392 72.9002 14 64 14C55.0999 14 46.3996 16.6392 38.9994 21.5839C31.5991 26.5285 25.8314 33.5566 22.4254 41.7792C19.0195 50.0019 18.1283 59.0499 19.8647 67.7791C21.601 76.5082 25.8869 84.5264 32.1802 90.8198L27.9376 95.0624C20.8051 87.93 15.9478 78.8426 13.98 68.9496C12.0121 59.0566 13.0221 48.8022 16.8822 39.4831C20.7422 30.1641 27.279 22.199 35.6659 16.595C44.0528 10.9911 53.9132 8 64 8C74.0869 8 83.9472 10.9911 92.3341 16.5951C100.721 22.199 107.258 30.1641 111.118 39.4831C114.978 48.8022 115.988 59.0566 114.02 68.9496Z" fill="#A1AAB7"/>
<path id="Exclude_2" fill-rule="evenodd" clip-rule="evenodd" d="M101 57C101 63.4949 99.2904 69.8753 96.0429 75.5L90.8468 72.5C93.5676 67.7874 95 62.4416 95 57C95 51.5584 93.5676 46.2126 90.8468 41.5C88.126 36.7874 84.2126 32.874 79.5 30.1532C74.7874 27.4324 69.4416 26 64 26C58.5584 26 53.2126 27.4324 48.5 30.1532C43.7874 32.874 39.874 36.7874 37.1532 41.5C34.4324 46.2126 33 51.5584 33 57C33 62.4416 34.4324 67.7874 37.1532 72.5L31.9571 75.5C28.7096 69.8753 27 63.4949 27 57C27 50.5051 28.7096 44.1247 31.9571 38.5C35.2045 32.8753 39.8753 28.2045 45.5 24.9571C51.1247 21.7096 57.5051 20 64 20C70.4949 20 76.8753 21.7096 82.5 24.9571C88.1247 28.2045 92.7955 32.8753 96.0429 38.5C99.2904 44.1247 101 50.5051 101 57Z" fill="#A1AAB7"/>
</g>
</svg>
