<svg width="128" height="128" viewBox="0 0 128 128" fill="none" xmlns="http://www.w3.org/2000/svg">
<g id="Symbol_dataMarket ">
<g id="Group 38688">
<circle id="Ellipse 17" cx="98" cy="106" r="7" fill="#A1AAB7" stroke="black" stroke-width="6"/>
<circle id="Ellipse 19" cx="56" cy="106" r="7" fill="#A1AAB7" stroke="black" stroke-width="6"/>
</g>
<g id="Subtract">
<mask id="path-3-inside-1_687_4344" fill="white">
<path fill-rule="evenodd" clip-rule="evenodd" d="M77 58C88.0457 58 97 49.0457 97 38C97 37.6647 96.9917 37.3313 96.9754 37H120L112 79H40L32 37H57.0246C57.0083 37.3313 57 37.6647 57 38C57 49.0457 65.9543 58 77 58Z"/>
</mask>
<path d="M96.9754 37V31H90.6727L90.9827 37.2951L96.9754 37ZM120 37L125.894 38.1227L127.251 31H120V37ZM112 79V85H116.965L117.894 80.1227L112 79ZM40 79L34.106 80.1227L35.035 85H40V79ZM32 37V31H24.7493L26.106 38.1227L32 37ZM57.0246 37L63.0173 37.2951L63.3273 31H57.0246V37ZM91 38C91 45.732 84.732 52 77 52V64C91.3594 64 103 52.3594 103 38H91ZM90.9827 37.2951C90.9942 37.5282 91 37.7632 91 38H103C103 37.5662 102.989 37.1344 102.968 36.7049L90.9827 37.2951ZM96.9754 43H120V31H96.9754V43ZM114.106 35.8773L106.106 77.8773L117.894 80.1227L125.894 38.1227L114.106 35.8773ZM112 73H40V85H112V73ZM45.894 77.8773L37.894 35.8773L26.106 38.1227L34.106 80.1227L45.894 77.8773ZM32 43H57.0246V31H32V43ZM63 38C63 37.7631 63.0058 37.5281 63.0173 37.2951L51.0318 36.7049C51.0107 37.1344 51 37.5662 51 38H63ZM77 52C69.268 52 63 45.732 63 38H51C51 52.3594 62.6406 64 77 64V52Z" fill="black" mask="url(#path-3-inside-1_687_4344)"/>
</g>
<path id="Vector 12" d="M9 16H31L43 78L36 93H115" stroke="black" stroke-width="6"/>
<path id="Exclude" fill-rule="evenodd" clip-rule="evenodd" d="M77 64C91.3594 64 103 52.3594 103 38C103 23.6406 91.3594 12 77 12C62.6406 12 51 23.6406 51 38C51 52.3594 62.6406 64 77 64ZM77 58C88.0457 58 97 49.0457 97 38C97 26.9543 88.0457 18 77 18C65.9543 18 57 26.9543 57 38C57 49.0457 65.9543 58 77 58Z" fill="#14FFF7"/>
<g id="Group 38684">
<rect id="Rectangle 68" x="74" y="33" width="6" height="20" fill="black"/>
<rect id="Rectangle 69" x="74" y="24" width="6" height="6" fill="black"/>
</g>
</g>
</svg>
